<svg preserveAspectRatio="none" overflow="visible" style="display: block;" width="12.1905" height="12.1905" viewBox="0 0 12.1905 12.1905" fill="none" xmlns="http://www.w3.org/2000/svg">
<g id="Glyph">
<path id="Vector" d="M6.51683 1.1073C6.38448 1.04693 6.24071 1.01569 6.09524 1.01569C5.94977 1.01569 5.806 1.04693 5.67365 1.1073L1.32063 3.08825C1.2305 3.128 1.15387 3.19309 1.10007 3.27561C1.04627 3.35813 1.01763 3.45451 1.01763 3.55302C1.01763 3.65152 1.04627 3.7479 1.10007 3.83042C1.15387 3.91294 1.2305 3.97803 1.32063 4.01778L5.67873 6.00381C5.81108 6.06418 5.95485 6.09542 6.10032 6.09542C6.24578 6.09542 6.38956 6.06418 6.5219 6.00381L10.88 4.02286C10.9701 3.98311 11.0468 3.91802 11.1006 3.8355C11.1544 3.75298 11.183 3.6566 11.183 3.5581C11.183 3.45959 11.1544 3.36321 11.1006 3.28069C11.0468 3.19817 10.9701 3.13308 10.88 3.09333L6.51683 1.1073Z" stroke="white" stroke-width="1.18502" stroke-linecap="round" stroke-linejoin="round"/>
<path id="Vector_2" d="M11.1746 8.96508L6.51683 11.0781C6.38448 11.1385 6.24071 11.1697 6.09524 11.1697C5.94977 11.1697 5.806 11.1385 5.67365 11.0781L1.01587 8.96508" stroke="white" stroke-width="1.18502" stroke-linecap="round" stroke-linejoin="round"/>
<path id="Vector_3" d="M11.1746 6.4254L6.51683 8.53841C6.38448 8.59878 6.24071 8.63002 6.09524 8.63002C5.94977 8.63002 5.806 8.59878 5.67365 8.53841L1.01587 6.4254" stroke="white" stroke-width="1.18502" stroke-linecap="round" stroke-linejoin="round"/>
</g>
</svg>
